<?xml version="1.0" standalone="no"?>
<!DOCTYPE svg PUBLIC "-//W3C//DTD SVG 20010904//EN"
 "http://www.w3.org/TR/2001/REC-SVG-20010904/DTD/svg10.dtd">
<svg version="1.0" xmlns="http://www.w3.org/2000/svg"
 width="650.000000pt" height="650.000000pt" viewBox="0 0 650.000000 650.000000"
 preserveAspectRatio="xMidYMid meet">

<g transform="translate(0.000000,650.000000) scale(0.100000,-0.100000)"
fill="#000000" stroke="none">
<path d="M3844 6373 c-49 -207 -77 -299 -112 -369 -47 -93 -122 -192 -190
-248 -52 -42 -187 -113 -327 -171 -270 -111 -344 -193 -333 -370 9 -132 93
-261 244 -372 35 -26 62 -48 60 -50 -1 -2 -17 2 -35 8 -26 9 -35 8 -50 -5 -27
-25 -56 -123 -55 -188 l1 -56 -86 -12 c-246 -34 -283 -40 -300 -50 -14 -7 -27
-6 -48 4 -15 8 -64 24 -108 34 -44 11 -97 26 -118 34 -38 13 -39 14 -33 54 5
39 3 43 -22 53 -29 12 -78 102 -92 166 -9 44 -39 40 -56 -7 -7 -20 -22 -50
-35 -67 -15 -20 -24 -52 -29 -103 -13 -122 -27 -148 -98 -186 -72 -39 -75 -50
-32 -119 32 -50 37 -78 19 -117 -22 -48 -3 -92 71 -164 55 -53 71 -77 81 -114
7 -26 10 -51 6 -54 -4 -4 -49 33 -100 83 -50 50 -106 97 -123 106 -45 23 -52
35 -84 147 -16 56 -36 113 -45 126 -17 27 -51 31 -80 10 -17 -12 -17 -16 -2
-79 20 -79 20 -77 2 -101 -13 -18 -15 -18 -45 4 -17 12 -37 36 -44 54 -8 18
-29 43 -47 56 -19 13 -46 34 -60 47 -22 20 -145 63 -181 63 -6 0 -44 -34 -84
-76 -68 -71 -76 -76 -106 -71 -20 4 -61 -2 -105 -16 -61 -19 -73 -25 -73 -44
0 -25 60 -71 133 -102 25 -11 57 -36 72 -56 16 -20 41 -43 56 -51 19 -10 32
-28 43 -61 l15 -48 -2 43 c-1 23 1 42 5 42 9 0 28 -67 28 -98 0 -13 4 -20 10
-17 6 3 10 29 10 57 0 68 9 56 24 -34 l13 -73 8 47 c4 25 4 55 0 67 -3 12 -2
21 3 21 11 0 32 -84 32 -125 0 -13 3 -32 8 -42 4 -11 9 10 12 57 6 85 15 77
26 -25 l8 -70 9 58 c5 31 13 57 18 57 4 0 10 -21 14 -47 3 -27 9 -64 13 -83 6
-33 7 -32 12 20 l5 55 19 -29 c19 -28 24 -111 8 -128 -4 -4 -46 -12 -93 -17
-69 -8 -100 -17 -150 -45 -62 -34 -62 -35 -33 -41 42 -10 134 -53 170 -80 17
-13 34 -36 36 -50 5 -22 2 -25 -22 -25 -15 0 -47 -7 -70 -15 -23 -8 -49 -15
-56 -15 -23 0 -16 17 9 24 12 3 36 19 52 36 25 26 26 30 9 30 -10 0 -39 -10
-64 -22 -63 -29 -93 -25 -153 25 -111 92 -113 95 -120 172 -6 66 -8 72 -48
108 -23 20 -44 35 -46 33 -3 -2 5 -22 16 -44 18 -36 55 -171 48 -178 -1 -2
-21 3 -42 10 -22 7 -78 16 -125 19 -75 5 -81 4 -55 -7 l30 -13 -35 -11 c-19
-6 -64 -14 -98 -18 -40 -4 -66 -12 -69 -21 -3 -8 -3 -16 -1 -19 3 -2 67 7 142
21 167 30 166 30 196 3 17 -16 34 -21 60 -19 26 1 41 -4 54 -18 19 -21 19 -21
-5 -21 -23 0 -22 -1 7 -19 18 -11 48 -41 69 -68 l37 -48 76 3 c42 1 97 9 122
16 39 12 49 12 65 0 18 -13 18 -15 -4 -38 -13 -14 -40 -28 -63 -31 -35 -6 -39
-10 -33 -29 13 -44 18 -106 7 -106 -6 0 -20 20 -32 45 -21 44 -23 45 -68 45
-26 0 -76 -9 -110 -20 -80 -25 -98 -25 -172 0 l-60 20 -88 -21 c-48 -12 -99
-30 -115 -41 -30 -22 -67 -86 -67 -118 0 -22 52 -60 82 -60 10 0 21 -14 29
-37 26 -80 40 -89 147 -97 53 -4 100 -10 104 -14 5 -5 -7 -30 -27 -57 l-35
-49 21 -22 c11 -12 24 -46 29 -80 16 -98 13 -104 -25 -47 -31 47 -71 88 -50
52 71 -119 87 -139 116 -139 25 0 29 -5 39 -42 17 -65 21 -68 16 -11 -3 29 -1
53 3 53 5 0 18 -23 30 -52 25 -60 34 -61 18 -1 -19 71 17 73 53 3 25 -50 42
-53 29 -4 -20 72 -2 69 34 -6 36 -77 47 -71 28 13 l-9 38 59 -60 c72 -74 76
-99 19 -123 -50 -21 -55 -44 -7 -33 17 4 43 9 57 10 70 5 148 19 172 31 30 16
128 19 128 5 0 -26 -34 -41 -92 -41 -87 0 -186 -19 -235 -45 -23 -12 -40 -25
-37 -28 4 -3 -10 -14 -29 -23 -36 -17 -64 -65 -83 -137 -9 -37 -48 -61 -152
-93 -45 -15 -99 -40 -119 -56 -44 -34 -92 -108 -71 -108 8 0 19 5 25 11 9 9
20 3 45 -24 23 -24 54 -41 101 -57 70 -22 97 -47 97 -87 0 -13 9 -28 19 -35
19 -12 19 -13 -5 -60 -31 -62 -30 -72 8 -91 29 -14 35 -14 68 0 41 18 130 33
130 22 0 -5 -27 -38 -61 -73 l-61 -65 10 -65 c6 -36 22 -92 37 -124 l26 -58
-21 -55 c-25 -66 -61 -109 -92 -110 -14 0 -3 -8 31 -20 30 -10 62 -26 72 -35
14 -13 69 -115 69 -128 0 -2 -17 -6 -38 -9 -21 -4 -46 -14 -57 -22 -19 -15
-17 -16 26 -10 63 8 78 0 90 -51 6 -24 12 -45 13 -45 3 -3 248 -20 296 -20
100 -1 132 9 193 58 32 25 54 49 48 52 -5 4 6 26 27 54 26 33 38 43 44 34 5
-11 22 -6 76 20 38 18 102 41 141 51 39 10 77 24 83 30 7 7 12 51 12 114 1 56
2 94 4 85 2 -9 8 -17 12 -17 10 0 5 32 -16 115 -11 44 -11 47 2 31 8 -11 14
-24 14 -30 0 -5 3 -7 6 -3 3 3 -4 36 -16 72 -12 36 -20 69 -17 72 3 3 19 -22
36 -55 29 -57 51 -85 51 -64 0 5 -11 40 -25 76 -32 84 -31 89 5 46 22 -26 30
-30 30 -17 0 36 20 15 35 -38 9 -30 24 -62 33 -71 14 -15 16 -14 24 6 5 13 23
39 41 59 18 20 42 50 54 66 13 17 1 -18 -27 -78 -47 -99 -50 -112 -44 -160 3
-28 12 -72 20 -97 24 -80 18 -191 -14 -254 -8 -16 -45 -59 -83 -96 -64 -61
-69 -69 -69 -108 0 -35 3 -42 20 -42 13 0 20 7 20 20 0 11 16 30 38 46 34 24
35 26 10 22 -25 -5 -24 -2 24 54 28 32 55 58 59 58 11 0 59 -94 59 -115 0 -8
15 -21 33 -29 30 -12 97 -94 97 -118 0 -18 43 -108 51 -108 12 0 11 37 0 45
-5 3 -15 29 -21 58 -15 71 -63 147 -93 147 -19 0 -29 12 -50 58 -50 111 -40
232 38 462 25 71 45 148 45 170 0 32 4 40 19 40 14 0 22 -12 30 -44 16 -65 15
-74 -24 -163 -34 -78 -42 -123 -29 -157 10 -26 24 -18 24 14 0 36 8 37 45 8
l28 -22 -5 42 c-5 32 -3 42 8 42 10 0 14 -15 14 -56 0 -34 4 -53 10 -49 6 3
10 33 10 65 0 72 20 93 21 23 l1 -48 15 58 c8 31 19 57 24 57 4 0 7 -6 5 -12
-3 -7 -7 -35 -10 -63 -7 -55 5 -51 24 7 15 49 35 50 26 2 -4 -19 -9 -43 -12
-52 -2 -9 4 1 14 23 l19 40 21 -40 c39 -72 36 -71 160 -72 108 -2 117 -3 188
-37 41 -19 94 -49 120 -66 27 -19 53 -30 65 -27 15 4 21 -3 31 -35 8 -26 22
-47 41 -58 28 -18 29 -18 62 16 25 25 37 49 49 103 9 38 16 77 16 86 0 30 28
71 62 89 49 26 68 66 68 141 0 95 20 103 126 48 l51 -27 67 37 c69 38 75 38
113 4 19 -17 25 -18 38 -7 32 27 46 69 39 116 -3 24 -4 44 -1 44 3 0 15 -16
26 -36 12 -20 24 -35 26 -32 4 4 -19 79 -41 133 -32 79 -27 96 13 48 l23 -28
-15 37 c-28 69 -26 72 68 64 81 -6 83 -7 118 -47 20 -23 47 -62 59 -88 25 -53
101 -121 133 -121 18 0 9 12 -45 63 -47 43 -76 80 -94 120 -16 35 -38 64 -55
74 -56 33 -8 42 108 21 59 -12 68 -17 89 -50 20 -32 34 -40 106 -62 45 -14 84
-23 87 -21 12 12 -27 35 -77 45 -66 14 -108 45 -90 67 16 19 8 23 -74 40 -90
18 -128 19 -246 2 -107 -15 -104 -16 -149 71 -23 45 -37 60 -80 82 -29 14 -64
40 -78 56 -22 26 -24 37 -19 71 7 46 24 65 24 29 0 -13 5 -30 11 -38 8 -11 9
-6 5 22 -8 59 10 54 20 -5 l8 -52 4 58 c2 31 7 57 11 57 9 0 21 -49 21 -86 0
-13 5 -24 10 -24 6 0 10 27 10 60 0 61 19 87 21 28 1 -18 5 -44 10 -58 6 -18
8 -8 6 38 -3 62 5 82 17 40 3 -13 6 -41 7 -63 1 -35 2 -37 9 -15 4 14 8 42 9
63 2 56 21 45 21 -13 0 -60 17 -66 26 -10 8 52 21 51 32 -2 l9 -43 8 38 c7 36
9 38 37 32 19 -5 37 -1 55 10 22 15 41 17 114 12 84 -6 89 -6 118 19 17 14 60
34 95 44 36 10 75 26 88 36 27 20 66 103 75 159 3 22 9 47 14 56 9 18 118 61
279 110 89 27 133 48 183 89 4 4 -4 41 -18 83 -14 43 -25 84 -25 93 0 8 -17
33 -39 57 -37 41 -38 44 -34 102 2 33 13 81 25 107 l21 46 -23 34 c-49 71 -89
102 -75 58 11 -33 -23 -24 -45 13 -29 45 -35 77 -19 88 25 15 -19 22 -68 10
-60 -15 -98 -35 -153 -81 -50 -41 -96 -60 -146 -60 -43 0 -145 -23 -214 -48
-13 -5 -13 -3 -1 11 12 15 10 18 -14 27 -14 5 -30 10 -34 10 -16 0 -43 39 -35
52 27 47 68 89 82 83 30 -11 235 27 274 51 37 24 42 32 54 97 5 29 20 50 68
93 42 39 52 52 31 41 -45 -22 -150 -137 -165 -179 -12 -33 -19 -38 -64 -49
-28 -6 -84 -13 -123 -16 -86 -7 -90 1 -47 74 14 25 23 47 20 50 -3 4 -24 -13
-46 -37 l-40 -43 0 55 c0 48 4 60 29 87 16 17 38 31 50 31 14 0 21 6 21 19 0
21 19 31 61 31 28 0 29 2 29 44 0 51 -11 63 -71 74 -75 14 -79 19 -62 75 l14
48 37 -32 c112 -99 305 -117 366 -35 25 33 26 95 1 132 -16 25 -16 28 2 53 84
113 86 118 92 201 5 56 11 84 21 90 8 5 82 25 165 45 243 58 314 96 361 191
24 50 26 62 21 135 -5 74 -11 93 -74 222 -63 132 -68 148 -72 219 -3 69 0 84
26 140 43 92 122 171 257 258 155 100 154 121 -1 100 -230 -30 -393 -141 -497
-340 -58 -111 -77 -195 -83 -372 -6 -180 7 -161 -129 -178 -90 -12 -199 -3
-185 14 6 7 13 42 17 79 6 56 4 68 -10 73 -9 3 -16 17 -16 30 0 13 -6 24 -13
24 -37 0 -84 -24 -110 -56 -28 -34 -32 -35 -76 -29 -25 3 -71 1 -101 -5 -44
-8 -57 -8 -69 4 -12 12 -12 20 -1 47 13 29 12 33 -9 50 -13 11 -33 19 -45 20
-11 0 -46 1 -77 2 -52 2 -60 6 -103 45 -70 65 -95 72 -249 72 -99 0 -146 4
-183 17 -71 24 -116 53 -110 70 3 8 6 17 6 19 0 2 7 4 15 4 21 0 20 6 -24 94
-35 69 -39 84 -34 127 5 39 3 50 -11 55 -9 3 -16 13 -16 20 0 12 -4 13 -22 3
-31 -16 -198 -191 -198 -206 0 -21 -16 -15 -67 26 -58 46 -115 110 -136 154
l-16 31 68 36 c144 76 275 208 370 375 78 135 131 332 131 484 0 144 -74 308
-96 214z m55 -209 c2 -264 -108 -518 -307 -705 -111 -105 -250 -185 -354 -204
-41 -8 -52 -26 -15 -24 12 0 45 6 72 13 l50 11 37 -76 c45 -92 146 -193 238
-236 51 -25 59 -33 70 -69 24 -83 -21 -165 -111 -203 l-51 -22 -96 64 c-53 35
-141 91 -196 123 -205 123 -307 252 -314 400 -8 147 41 196 325 328 243 112
336 175 424 286 82 103 133 214 169 365 12 50 24 97 27 105 12 31 31 -67 32
-156z m2026 -842 c-6 -5 -39 -30 -75 -55 -95 -66 -175 -155 -213 -234 -27 -59
-32 -79 -32 -148 0 -79 1 -82 75 -235 73 -150 75 -157 75 -230 0 -94 -23 -142
-88 -186 -46 -32 -74 -42 -304 -106 l-122 -34 30 33 c28 33 36 66 21 89 -14
22 -49 32 -134 39 -87 7 -88 7 -110 42 -15 26 -22 53 -22 94 l-1 57 90 -5 c50
-3 121 -1 160 5 78 13 79 12 89 -51 13 -79 15 -28 5 89 -34 369 94 653 354
786 60 30 226 71 202 50z m-2130 -112 c3 -5 2 -26 -4 -45 -8 -29 -6 -44 10
-80 12 -28 17 -54 13 -70 l-6 -25 -34 30 c-34 29 -53 37 -106 42 -27 3 -27 4
38 81 66 77 77 86 89 67z m-562 -459 c40 -7 79 -24 126 -55 59 -38 92 -66 78
-66 -2 0 -65 -13 -140 -29 -75 -16 -138 -26 -141 -23 -4 3 -6 15 -6 26 0 25
-16 53 -25 44 -4 -3 -2 -22 3 -41 10 -36 3 -47 -32 -47 -17 0 -19 70 -5 124
16 62 36 87 62 81 12 -2 48 -9 80 -14z m-948 -103 c19 -15 22 -24 18 -58 -6
-46 11 -77 33 -59 10 8 24 7 56 -5 24 -9 76 -25 117 -35 73 -20 105 -37 96
-50 -2 -4 0 -62 4 -129 l7 -121 67 -100 c48 -72 71 -99 82 -95 9 4 15 1 15 -8
0 -20 -20 -37 -36 -31 -8 3 -21 -12 -35 -39 -27 -54 -39 -63 -114 -83 -33 -10
-88 -30 -122 -45 -90 -41 -120 -46 -145 -23 -16 13 -20 14 -16 3 12 -40 70
-45 168 -15 25 8 63 17 85 21 35 6 38 5 27 -8 -7 -9 -31 -18 -54 -22 -23 -4
-73 -21 -111 -37 -70 -31 -180 -50 -189 -33 -3 5 -1 47 5 94 20 160 12 186
-93 313 -20 24 -42 62 -49 85 -14 42 -14 43 19 77 l33 34 -22 33 c-13 18 -43
48 -67 67 -24 18 -44 39 -44 45 0 7 22 20 50 30 27 10 51 25 54 34 2 10 10 43
17 74 7 32 15 55 20 53 4 -3 10 9 14 27 4 18 19 46 34 61 l26 28 13 -32 c7
-18 24 -40 37 -51z m2269 58 c42 6 46 5 46 -15 0 -20 -3 -21 -52 -15 -53 7
-78 18 -78 36 0 5 8 4 19 -2 11 -5 40 -7 65 -4z m436 -64 c0 -15 5 -33 11 -39
13 -13 -9 -68 -26 -68 -6 0 -28 15 -50 32 l-39 33 25 26 c22 24 51 42 72 43 4
1 7 -12 7 -27z m-987 -1 c14 -6 38 -26 53 -46 23 -31 26 -40 16 -56 -7 -10
-12 -28 -12 -40 0 -12 -5 -19 -12 -16 -8 2 -13 22 -13 50 0 53 -15 47 -24 -10
l-6 -38 -48 44 c-50 47 -56 64 -31 99 16 24 38 27 77 13z m444 -172 c15 -6 64
-45 108 -88 75 -74 140 -119 152 -107 3 3 -20 28 -51 57 -31 28 -55 53 -54 54
2 1 64 -1 138 -5 107 -6 146 -12 188 -30 62 -27 113 -82 133 -142 l13 -43 4
33 3 34 60 -7 c131 -15 140 -27 80 -100 -30 -37 -39 -55 -35 -72 4 -13 3 -52
-1 -87 -5 -51 -16 -80 -52 -141 -36 -60 -47 -88 -49 -129 -2 -28 0 -41 2 -28
7 30 20 28 27 -5 8 -37 -20 -75 -66 -90 -64 -22 -180 11 -252 72 l-30 25 24
20 c30 26 95 26 156 0 26 -11 49 -20 51 -20 12 0 0 23 -28 55 -89 102 -270
128 -548 79 -158 -27 -225 -26 -277 6 -42 25 -73 94 -79 177 l-5 68 65 53 c61
49 79 72 58 72 -50 0 -453 -364 -492 -444 -11 -24 -20 -63 -20 -88 0 -39 5
-52 32 -78 31 -31 34 -32 99 -28 57 4 82 13 166 58 182 99 170 95 263 95 107
-1 164 -24 341 -137 118 -75 153 -108 114 -108 -8 0 -15 7 -15 15 0 23 -18 18
-37 -12 -14 -21 -17 -50 -18 -152 0 -136 -13 -178 -67 -228 -25 -23 -189 -105
-196 -98 -3 2 9 20 27 40 34 39 51 87 33 93 -9 3 -9 9 -1 24 20 38 -3 32 -37
-10 -20 -23 -39 -42 -42 -42 -4 0 -6 21 -3 46 2 25 -2 51 -8 57 -8 8 -11 -4
-11 -46 0 -31 -4 -57 -9 -57 -5 0 -17 -3 -25 -6 -14 -5 -15 -2 -6 21 13 34 13
115 0 115 -5 0 -10 -11 -10 -23 0 -13 -9 -32 -20 -42 -11 -10 -23 -27 -27 -39
-6 -20 -7 -20 -13 4 -4 14 -2 31 3 38 18 23 -10 13 -37 -14 l-26 -27 0 47 c0
70 -24 55 -30 -19 l-5 -58 -28 74 c-21 54 -27 81 -22 108 10 54 41 107 81 138
20 15 46 35 57 45 12 9 19 19 15 23 -13 13 -53 -4 -94 -39 l-41 -35 -11 23
c-5 13 -30 32 -53 43 l-44 21 60 12 c34 7 89 10 128 7 37 -3 67 -4 67 -2 0 3
-14 12 -32 21 -54 28 -170 15 -318 -35 -69 -24 -153 -45 -187 -48 -59 -5 -63
-4 -92 24 -37 37 -65 129 -58 186 7 54 29 81 121 151 43 33 107 94 143 135 36
42 156 172 266 288 240 255 290 288 384 252z m-1681 -113 c156 -54 314 -55
466 -2 38 13 68 22 68 20 0 -8 -120 -80 -190 -113 -68 -32 -83 -36 -161 -36
-78 0 -91 3 -160 37 -90 45 -128 80 -109 103 15 18 4 19 86 -9z m-1258 -34
c57 -45 68 -60 54 -74 -20 -20 -14 -27 51 -56 34 -16 68 -36 76 -45 26 -32 48
-20 77 40 23 50 25 62 17 100 -18 75 6 35 37 -65 16 -53 30 -103 30 -111 0
-17 24 -36 70 -57 41 -18 70 -42 70 -59 0 -7 17 -31 38 -52 98 -105 112 -122
112 -137 0 -8 14 -31 30 -49 17 -19 30 -42 30 -51 0 -39 -44 -98 -115 -156
-80 -65 -118 -109 -130 -150 -4 -14 -17 -35 -29 -48 -19 -21 -27 -23 -73 -17
-32 4 -60 2 -73 -5 -18 -10 -25 -8 -44 13 -12 13 -39 27 -60 31 -29 6 -56 25
-112 79 -48 47 -92 80 -127 94 l-52 22 30 11 c41 16 113 16 157 0 31 -11 39
-11 53 0 15 12 19 12 31 -5 8 -10 14 -27 14 -37 0 -9 14 -33 30 -51 17 -19 30
-42 30 -50 0 -18 47 -77 61 -77 5 0 15 11 21 25 6 14 17 25 23 25 7 0 20 9 31
21 18 20 18 22 1 34 -12 9 -17 26 -17 62 0 42 -7 61 -40 111 -22 33 -47 62
-55 66 -8 3 -24 26 -36 51 -12 25 -25 45 -29 45 -5 0 -34 30 -66 68 -66 78
-158 145 -191 139 -13 -3 -29 4 -39 14 -10 11 -26 19 -36 19 -33 0 -97 39
-112 69 -18 34 -72 68 -141 88 -47 14 -48 16 -30 30 14 10 33 12 61 8 51 -7
89 7 134 50 88 84 163 96 238 37z m1227 -77 c43 -24 91 -47 107 -50 27 -6 28
-8 14 -24 -9 -10 -24 -42 -35 -72 -14 -43 -22 -53 -37 -51 -11 2 -19 5 -20 5
0 1 -22 30 -48 64 -38 49 -49 72 -55 117 -4 31 -7 56 -6 56 1 0 37 -20 80 -45z
m312 -68 c-21 -12 -75 -46 -119 -75 -47 -31 -78 -46 -74 -37 3 9 6 21 6 26 0
5 16 27 36 49 31 34 43 40 78 41 22 1 52 5 66 9 44 14 46 10 7 -13z m993 -244
c0 -76 65 -162 135 -182 56 -15 89 -14 271 10 89 12 169 19 178 16 11 -5 16
-19 16 -52 0 -25 5 -45 10 -45 6 0 10 4 10 10 0 13 38 32 50 25 5 -3 1 -20
-10 -38 -11 -18 -23 -53 -26 -79 -4 -27 -9 -48 -11 -48 -3 0 -56 31 -119 69
-148 90 -220 114 -322 109 -56 -3 -94 -12 -142 -32 -36 -16 -83 -29 -105 -30
-40 -1 -40 -1 -40 37 0 38 -8 48 -18 23 -3 -8 -17 -22 -32 -32 -34 -22 -55 -5
-55 47 0 58 21 73 94 65 46 -5 57 -3 48 6 -6 6 -36 13 -67 16 -67 5 -71 20
-18 74 43 44 53 47 53 14 0 -14 5 -28 10 -31 6 -3 10 0 10 7 0 8 7 24 16 36
19 27 64 30 64 5z m-2487 -734 c38 -10 56 -11 92 -1 58 15 137 15 171 0 19 -9
38 -37 70 -103 39 -81 42 -95 34 -130 -38 -174 -45 -229 -46 -385 -1 -91 -2
-171 -3 -177 -1 -15 -75 -63 -96 -63 -23 0 -29 27 -17 67 9 28 8 40 -4 58 -17
26 -55 45 -88 45 -17 0 -30 11 -45 36 -21 35 -24 36 -64 31 -23 -4 -55 -9 -71
-13 -19 -5 -27 -3 -23 4 4 5 29 15 55 22 53 12 77 6 124 -32 33 -26 47 -18 29
16 -16 28 -79 66 -112 66 -13 0 -53 -14 -89 -32 -48 -24 -85 -34 -145 -39 -44
-4 -101 -10 -126 -14 -44 -7 -49 -5 -85 28 -34 30 -37 37 -25 51 11 13 11 20
3 28 -19 19 -14 41 16 78 63 76 62 109 -1 141 -32 17 -50 20 -96 14 -31 -3
-63 -8 -72 -11 -10 -3 -23 10 -39 38 -13 22 -45 66 -72 95 -37 41 -48 61 -46
81 4 33 52 67 114 80 41 9 51 7 101 -19 74 -39 147 -40 202 -3 22 14 57 28 79
31 38 5 42 3 66 -35 29 -47 62 -72 92 -72 18 0 23 8 28 44 4 24 4 56 0 71 -8
31 -8 31 89 4z m2624 -126 c-3 -10 -5 -2 -5 17 0 19 2 27 5 18 2 -10 2 -26 0
-35z m1063 -36 c0 -53 21 -84 63 -95 42 -11 45 -36 13 -97 -14 -26 -29 -69
-32 -96 -7 -54 -29 -81 -65 -77 -23 3 -24 -1 -30 -62 -6 -71 -12 -94 -40 -156
-18 -40 -79 -104 -100 -104 -6 0 -33 -10 -60 -21 -58 -25 -75 -52 -84 -130
-14 -117 -41 -149 -123 -149 -31 0 -41 -4 -45 -19 -4 -18 -8 -19 -48 -7 -24 8
-67 17 -95 21 -35 4 -79 23 -135 56 -85 50 -143 62 -179 39 -11 -7 -5 -10 25
-10 38 0 75 -15 212 -90 29 -15 75 -31 103 -35 40 -6 50 -11 50 -26 0 -10 -6
-19 -14 -19 -33 0 -157 45 -222 81 -51 28 -89 41 -131 45 l-58 6 -62 -66 c-34
-36 -74 -87 -90 -113 -20 -35 -29 -43 -31 -30 -2 11 6 29 17 41 28 29 105 206
124 282 17 66 31 172 47 343 18 188 35 260 71 297 35 36 115 75 157 75 15 1
61 -11 102 -26 60 -22 86 -26 133 -22 32 3 63 10 70 15 13 11 113 42 134 42 8
0 11 -4 8 -10 -18 -30 80 24 133 72 44 40 159 101 174 92 4 -3 8 -24 8 -47z
m-1014 -11 c-5 -29 -5 -30 9 -12 17 23 40 10 25 -14 -7 -11 -15 -12 -37 -4
-31 10 -41 37 -23 59 19 22 33 6 26 -29z m84 -32 c0 -2 -9 -4 -21 -4 -11 0
-18 4 -14 10 5 8 35 3 35 -6z m286 -49 c52 -19 60 -24 32 -21 -35 4 -133 43
-112 45 5 1 41 -10 80 -24z m-2776 -751 c29 -16 64 -43 77 -61 14 -18 108
-105 209 -194 175 -155 188 -165 285 -205 124 -52 175 -69 257 -85 35 -6 74
-21 89 -32 24 -19 25 -25 20 -83 -6 -83 -14 -94 -40 -52 -12 18 -20 39 -18 46
4 21 -27 50 -66 63 -29 9 -42 8 -86 -11 -64 -28 -196 -111 -223 -142 -36 -39
-47 -104 -41 -240 5 -121 9 -142 29 -185 12 -24 -3 -53 -27 -53 -7 0 -36 -16
-65 -36 -28 -19 -73 -44 -98 -55 -51 -22 -102 -65 -102 -86 0 -18 -42 -43
-107 -65 -76 -24 -94 -23 -157 12 -73 42 -89 61 -77 93 15 38 33 43 121 33 72
-9 103 -5 88 9 -8 8 -116 35 -140 35 -32 0 -166 -88 -164 -108 0 -10 -7 -18
-21 -20 -17 -2 -31 11 -65 59 -24 34 -49 70 -56 80 -11 15 -11 26 4 73 17 55
17 57 -4 100 -12 24 -22 55 -22 69 0 14 -11 49 -24 78 l-25 52 30 58 c16 32
45 71 65 86 152 116 160 129 148 221 l-6 43 -42 -3 c-38 -3 -43 -7 -63 -48
-12 -25 -36 -59 -55 -77 -44 -42 -159 -94 -182 -81 -14 8 -15 12 -1 38 9 17
24 30 33 30 10 0 27 8 38 18 15 15 18 29 16 75 -4 56 -5 57 -33 57 -17 0 -43
9 -58 21 -20 14 -48 22 -88 25 -77 4 -106 16 -133 54 -18 25 -20 33 -9 46 17
21 57 40 100 48 21 4 49 16 64 28 15 11 43 27 64 34 31 10 39 20 58 70 27 69
53 98 113 129 45 22 154 60 200 69 58 11 139 -2 190 -30z m2112 -542 c49 -42
164 -124 240 -172 69 -43 112 -85 102 -101 -3 -5 -32 -9 -65 -9 -56 0 -60 -2
-70 -27 -39 -98 -35 -94 -81 -87 -24 3 -66 12 -93 19 -91 22 -113 -1 -113
-115 0 -41 0 -80 -1 -86 -1 -6 -26 -29 -56 -50 -36 -24 -58 -47 -61 -63 -22
-101 -37 -148 -50 -161 -14 -13 -19 -11 -42 20 -66 85 -148 139 -237 155 -44
8 -165 46 -207 65 -22 10 -29 22 -34 59 -11 76 -48 142 -98 176 -25 17 -54 47
-66 68 -23 40 -64 67 -102 67 -13 0 -44 -11 -71 -25 -52 -28 -53 -28 -34 18
26 60 30 62 251 63 237 2 343 18 461 71 44 19 98 41 120 47 22 6 78 31 125 53
102 51 137 53 182 15z m205 -68 c12 -3 24 -12 27 -19 7 -20 -41 -15 -60 6 -19
21 -9 24 33 13z m112 -35 c17 -6 31 -15 31 -20 0 -5 9 -9 20 -9 17 0 20 -7 20
-44 0 -24 3 -52 7 -62 13 -36 -18 -2 -48 52 -19 32 -38 54 -48 54 -18 0 -41
18 -41 32 0 11 21 10 59 -3z m-49 -269 c0 -21 -53 -60 -81 -60 l-22 0 20 23
c11 12 28 37 38 56 17 33 18 34 31 16 8 -10 14 -26 14 -35z m100 25 c0 -21 -5
-25 -28 -25 -38 0 -46 9 -25 32 24 27 53 23 53 -7z m-1190 -142 c0 -21 -10
-11 -39 42 l-23 40 31 -33 c17 -18 31 -40 31 -49z m122 -168 c0 -5 -5 -11 -11
-13 -6 -2 -11 4 -11 13 0 9 5 15 11 13 6 -2 11 -8 11 -13z"/>
<path d="M3229 4674 c15 -51 16 -53 19 -23 5 43 -5 79 -22 79 -11 0 -10 -10 3
-56z"/>
<path d="M3170 4700 c0 -3 7 -25 14 -50 13 -41 15 -42 15 -14 1 16 -6 39 -14
50 -8 10 -14 17 -15 14z"/>
<path d="M2506 4368 c-3 -18 -7 -67 -9 -107 -4 -65 -3 -72 9 -57 14 20 27 87
28 150 1 49 -21 60 -28 14z"/>
<path d="M2450 4298 c1 -75 11 -77 24 -5 8 41 1 77 -15 77 -5 0 -9 -33 -9 -72z"/>
<path d="M2398 4300 c-2 -36 -3 -67 -2 -69 2 -1 8 16 14 39 7 27 8 51 2 68 -8
23 -10 17 -14 -38z"/>
<path d="M4390 4393 c-110 -41 -16 -191 106 -169 34 7 48 26 18 26 -20 0 -14
34 7 38 16 3 37 -15 98 -82 57 -63 47 -31 -21 61 -82 112 -144 150 -208 126z"/>
<path d="M4400 3925 l-105 -24 160 6 c88 3 162 7 164 9 3 3 0 9 -5 14 -21 21
-109 19 -214 -5z"/>
<path d="M4365 3520 c3 -5 22 -10 41 -10 35 0 83 -19 148 -59 19 -12 37 -17
40 -12 9 14 -59 69 -101 80 -49 14 -136 14 -128 1z"/>
<path d="M2097 3700 c-14 -11 -49 -52 -76 -90 -61 -83 -84 -90 -102 -30 -13
43 -29 53 -29 20 0 -29 26 -76 45 -84 9 -3 26 -1 38 5 28 15 187 176 187 189
0 17 -36 11 -63 -10z"/>
<path d="M850 3141 c0 -23 26 -88 39 -96 11 -6 4 54 -10 93 -10 27 -29 29 -29
3z"/>
<path d="M910 3095 c0 -15 8 -40 17 -58 17 -31 18 -31 21 -8 2 13 1 39 -3 57
-7 41 -35 47 -35 9z"/>
<path d="M980 3083 c1 -10 7 -31 15 -48 13 -29 13 -29 14 -5 1 34 -9 70 -20
70 -5 0 -9 -8 -9 -17z"/>
<path d="M1047 3082 c-8 -11 4 -62 14 -62 5 0 9 16 9 35 0 32 -12 46 -23 27z"/>
<path d="M1862 3008 c-47 -60 -77 -228 -68 -388 6 -102 6 -104 -11 -80 -33 46
-65 80 -74 80 -8 0 22 -45 83 -124 l22 -29 7 29 c4 16 15 99 24 184 8 85 25
189 37 231 20 74 20 109 0 109 -5 0 -14 -6 -20 -12z"/>
<path d="M4445 2821 c-69 -42 -82 -84 -99 -322 -11 -145 -18 -196 -34 -233
-26 -58 -21 -59 12 -3 31 54 41 94 61 247 20 157 46 220 103 249 44 23 54 37
40 64 -11 22 -45 22 -83 -2z"/>
<path d="M5071 2582 c-6 -12 -10 -45 -10 -74 1 -29 3 -42 6 -28 2 14 8 44 15
68 12 47 6 65 -11 34z"/>
<path d="M4921 2550 c-11 -38 -11 -56 0 -115 l14 -70 3 58 c2 31 2 83 0 115
l-3 57 -14 -45z"/>
<path d="M4996 2564 c-9 -23 -6 -105 4 -129 7 -15 9 -9 9 25 1 25 4 62 7 83 7
37 -8 53 -20 21z"/>
<path d="M4851 2485 c0 -27 6 -63 13 -80 12 -28 12 -26 8 30 -6 82 -21 116
-21 50z"/>
<path d="M1645 2131 c-26 -8 -22 -9 25 -10 110 -2 165 -44 298 -227 110 -151
247 -248 418 -295 67 -18 78 -19 91 -6 31 31 7 51 -102 85 -144 46 -235 108
-340 232 -108 129 -163 182 -210 205 -44 21 -133 28 -180 16z"/>
<path d="M2067 1373 c-4 -3 -7 -59 -7 -122 0 -84 -5 -136 -19 -186 -23 -81 -5
-67 29 21 47 127 45 336 -3 287z"/>
<path d="M1986 1314 c-3 -9 -6 -49 -6 -90 0 -48 -7 -94 -19 -129 -25 -70 -9
-63 17 8 27 72 46 171 38 202 -7 28 -21 33 -30 9z"/>
<path d="M1906 1279 c-3 -17 -6 -55 -6 -85 0 -29 -4 -64 -10 -78 -13 -35 -4
-33 14 3 23 44 36 113 29 154 -7 45 -18 48 -27 6z"/>
<path d="M1840 1221 c0 -27 -3 -58 -6 -68 -6 -14 -4 -16 6 -6 17 16 27 123 11
123 -7 0 -11 -19 -11 -49z"/>
<path d="M2160 1262 c0 -32 -41 -224 -54 -256 -22 -52 -13 -57 18 -9 46 69 76
191 62 247 -6 24 -26 37 -26 18z"/>
<path d="M3730 1549 c-153 -89 -251 -113 -513 -127 -87 -5 -162 -13 -166 -18
-5 -5 -5 -18 -1 -29 7 -17 9 -17 14 -4 6 13 25 14 126 11 250 -9 456 40 587
139 49 36 64 61 46 72 -5 3 -46 -18 -93 -44z"/>
<path d="M2478 5138 c-61 -19 -67 -23 -67 -47 1 -14 -6 -51 -15 -81 -9 -30
-19 -78 -22 -106 -6 -46 -3 -54 27 -97 l33 -47 63 0 c45 0 82 -7 126 -25 56
-23 66 -25 104 -13 47 14 48 16 58 128 7 77 -8 101 -76 125 -65 23 -70 30 -63
90 12 99 -28 116 -168 73z m113 -20 c1 -7 1 -40 0 -73 l-2 -60 73 -35 73 -35
-1 -44 c-1 -33 -6 -48 -25 -61 -23 -18 -24 -18 -52 6 -15 13 -46 28 -67 34
-71 19 -172 69 -164 81 18 29 51 140 43 145 -20 12 -6 23 49 37 73 19 72 19
73 5z"/>
<path d="M5700 3335 c-19 -8 -47 -16 -62 -19 -17 -4 -34 -18 -43 -36 -13 -26
-21 -30 -54 -28 -42 1 -104 -30 -121 -62 -13 -24 -13 -76 0 -100 5 -10 21 -21
35 -24 15 -4 50 -22 78 -41 l52 -34 77 27 78 27 0 37 c0 20 5 40 10 43 18 11
47 79 54 127 6 38 3 53 -11 73 -20 27 -41 29 -93 10z m58 -76 c-4 -55 -8 -65
-39 -91 -52 -44 -88 -57 -173 -59 -60 -2 -81 2 -94 14 -15 16 -14 19 18 52 23
24 42 34 59 33 31 -2 79 22 106 52 20 23 88 58 114 59 10 1 12 -13 9 -60z"/>
<path d="M563 2769 c-41 -20 -103 -90 -103 -115 0 -8 20 -16 48 -20 37 -5 56
-16 90 -49 37 -37 49 -43 102 -49 71 -8 111 8 136 56 9 17 29 42 45 55 38 32
37 55 -5 101 l-34 37 -119 2 c-103 3 -123 0 -160 -18z m269 -27 l21 -21 -28
-41 c-16 -23 -38 -46 -49 -52 -31 -17 -141 -2 -202 27 -77 36 -72 56 21 94 70
28 206 25 237 -7z"/>
<path d="M1205 2312 c-11 -2 -39 -21 -63 -42 -36 -32 -53 -39 -104 -45 -52 -6
-67 -13 -103 -46 -45 -42 -66 -43 -117 -6 -23 17 -31 18 -57 7 -16 -6 -37 -23
-46 -36 -19 -29 -15 -30 34 -5 l38 20 38 -26 c35 -24 41 -25 72 -14 19 7 36
11 39 9 13 -14 -14 -75 -52 -117 -48 -53 -52 -61 -30 -61 18 0 72 67 91 114 8
19 15 51 15 69 0 48 25 67 89 67 43 0 63 7 119 40 43 26 74 39 87 35 58 -15
98 -18 93 -5 -7 22 -107 51 -143 42z"/>
<path d="M912 1675 c-6 -14 -18 -25 -27 -25 -11 0 -15 -12 -15 -49 0 -27 -7
-65 -15 -84 -8 -20 -15 -49 -15 -64 0 -19 -14 -40 -49 -73 -57 -54 -73 -93
-44 -108 10 -6 66 -10 124 -9 91 2 108 5 132 24 15 12 41 24 56 28 15 3 34 17
41 30 8 16 22 25 37 25 43 0 50 -55 28 -210 -5 -34 -4 -33 19 14 21 43 24 58
19 120 -3 39 -14 91 -24 116 l-18 45 0 -33 c-1 -30 -3 -33 -28 -30 -41 4 -44
56 -8 109 37 52 43 114 16 157 -20 30 -24 32 -80 32 -33 0 -72 -5 -88 -11 -22
-8 -30 -7 -39 5 -9 14 -12 12 -22 -9z m182 -45 c6 0 17 -9 24 -20 10 -17 9
-27 -9 -63 -12 -23 -28 -50 -37 -59 -10 -12 -13 -29 -9 -52 l5 -34 -81 -16
c-45 -9 -100 -16 -121 -16 l-39 0 36 33 c36 31 37 34 44 120 l6 87 36 9 c20 5
45 12 56 14 11 3 33 3 49 1 16 -2 34 -4 40 -4z"/>
<path d="M4170 1121 c-56 -23 -133 -79 -164 -118 -20 -25 -36 -50 -36 -55 0
-5 15 -15 34 -23 35 -15 66 -70 66 -117 0 -12 12 -34 27 -50 l26 -27 141 5
c166 6 191 10 179 27 -10 14 -9 142 1 174 12 39 -9 61 -71 73 -80 15 -86 19
-125 69 -33 44 -50 54 -78 42z m42 -59 c12 -15 30 -38 38 -50 11 -17 32 -26
85 -35 l70 -13 3 -41 c2 -23 -2 -61 -8 -84 l-11 -42 -87 7 c-47 4 -91 10 -98
14 -6 4 -49 42 -95 84 l-83 77 24 26 c13 14 27 25 31 25 4 0 23 14 41 30 40
37 60 38 90 2z"/>
<path d="M3553 568 c3 -43 -1 -59 -20 -85 -37 -51 -31 -77 27 -119 28 -20 57
-49 65 -65 19 -36 70 -47 113 -25 41 21 97 91 115 144 14 39 13 42 -3 42 -11
0 -29 18 -44 45 -22 37 -32 45 -55 45 -16 0 -34 7 -41 15 -7 8 -24 15 -39 15
-14 0 -37 9 -51 20 -14 11 -35 20 -47 20 -21 0 -23 -4 -20 -52z m137 -28 c25
-7 51 -14 58 -16 7 -2 19 -19 27 -38 8 -18 21 -36 30 -39 8 -4 15 -12 15 -19
0 -22 -116 -131 -130 -123 -7 4 -23 32 -36 61 -16 36 -33 58 -54 69 -30 15
-40 47 -20 60 6 3 7 17 4 31 -3 13 -4 31 0 39 4 13 9 13 33 1 15 -8 48 -20 73
-26z"/>
<path d="M2064 545 c-33 -30 -62 -55 -66 -55 -4 0 -15 11 -24 25 -25 39 -63
33 -125 -20 -29 -25 -57 -45 -61 -45 -18 0 -48 -67 -48 -105 0 -37 6 -45 70
-102 69 -61 69 -61 111 -52 28 7 52 6 72 -1 39 -13 69 5 96 58 11 20 33 46 50
57 38 24 40 38 6 29 -24 -6 -26 -5 -19 22 9 40 13 44 32 44 10 0 31 23 50 55
27 45 31 58 22 75 -6 12 -17 19 -23 17 -20 -7 -47 12 -47 33 0 35 -35 22 -96
-35z m60 -57 c-3 -12 -26 -42 -50 -68 -23 -25 -54 -69 -69 -98 -14 -29 -28
-52 -29 -52 -2 0 -19 -7 -39 -15 -35 -14 -36 -14 -87 23 -88 63 -102 76 -95
92 10 24 144 130 165 130 10 0 30 -13 43 -30 14 -16 32 -30 39 -30 8 0 36 22
63 50 40 40 51 47 58 35 4 -9 5 -25 1 -37z"/>
</g>
</svg>
